# xmcd
#
# Track frame offsets: 
#        150
#        17464
#        30563
#        47698
#        64144
#        86957
#        102902
#        118788
#        136556
#        147500
#        168901
#        185952
#        206247
#
# Disc length: 2869 seconds
#
# Revision: 0
# Processed by: cddbd v1.5.2PL0 Copyright (c) Steve Scherf et al.
# Submitted via: ExactAudioCopy v1.3
#
DISCID=ba0b330d
DTITLE=Southwestern Pilgrimage - Southwestern Pilgrimage
DYEAR=2013
DGENRE=Country
TTITLE0=Acadian Angel
TTITLE1=Ozark Mountain View
TTITLE2=Southwestern Pilgrimage
TTITLE3=I'd Rather Be Sailin' With Governor Palin
TTITLE4=New Mexico Rain
TTITLE5=Ghosts of Gold Hill
TTITLE6=Ponies
TTITLE7=Here I Come, New Mexico
TTITLE8=Whole Lot Better Half of Me
TTITLE9=Yellow House
TTITLE10=Georgetown
TTITLE11=Wide Open Spaces
TTITLE12=The Fly
EXTD=
EXTT0=
EXTT1=
EXTT2=
EXTT3=
EXTT4=
EXTT5=
EXTT6=
EXTT7=
EXTT8=
EXTT9=
EXTT10=
EXTT11=
EXTT12=
PLAYORDER=
